<svg aria-hidden="true" style="position: absolute; width: 0; height: 0; overflow: hidden;" version="1.1"
  xmlns="http://www.w3.org/2000/svg" xmlns:xlink="http://www.w3.org/1999/xlink">
  <defs>
    <symbol id="icon-hexagon" viewBox="0 0 32 32">
      <path fill="none" stroke="currentColor" stroke-linejoin="round" stroke-linecap="round" stroke-miterlimit="4"
        stroke-width="1.5"
        d="M14.964 3.242c0.378-0.21 0.567-0.315 0.767-0.356 0.177-0.036 0.36-0.036 0.537 0 0.2 0.041 0.389 0.146 0.767 0.356l9.867 5.481c0.399 0.222 0.599 0.333 0.744 0.491 0.129 0.14 0.226 0.305 0.285 0.485 0.067 0.204 0.067 0.432 0.067 0.889v10.823c0 0.457 0 0.685-0.067 0.889-0.060 0.18-0.157 0.346-0.285 0.485-0.145 0.158-0.345 0.269-0.744 0.491l-9.867 5.481c-0.378 0.21-0.567 0.315-0.767 0.356-0.177 0.036-0.36 0.036-0.537 0-0.2-0.041-0.389-0.146-0.767-0.356l-9.867-5.481c-0.399-0.222-0.599-0.333-0.744-0.491-0.129-0.14-0.226-0.305-0.286-0.485-0.067-0.204-0.067-0.432-0.067-0.889v-10.823c0-0.457 0-0.685 0.067-0.889 0.060-0.18 0.157-0.346 0.286-0.485 0.145-0.158 0.345-0.269 0.744-0.491l9.867-5.481z">
      </path>
    </symbol>
    <symbol id="icon-threeCircles" viewBox="0 0 32 32">
      <path fill="none" stroke="currentColor" stroke-linejoin="round" stroke-linecap="round" stroke-miterlimit="4"
        stroke-width="1.5"
        d="M16 27.296c1.415 1.267 3.284 2.037 5.333 2.037 4.418 0 8-3.582 8-8 0-3.689-2.497-6.795-5.893-7.72M8.56 13.614c-3.396 0.925-5.894 4.031-5.894 7.72 0 4.418 3.582 8 8 8s8-3.582 8-8c0-1.041-0.199-2.035-0.56-2.947M24 10.667c0 4.418-3.582 8-8 8s-8-3.582-8-8 3.582-8 8-8c4.418 0 8 3.582 8 8z">
      </path>
    </symbol>
    <symbol id="icon-lightning" viewBox="0 0 32 32">
      <path fill="none" stroke="currentColor" stroke-linejoin="round" stroke-linecap="round" stroke-miterlimit="4"
        stroke-width="1.5"
        d="M18.999 2.667h-7.674c-0.239 0-0.359 0-0.465 0.036-0.093 0.032-0.178 0.085-0.249 0.154-0.080 0.078-0.133 0.185-0.24 0.399l-5.6 11.2c-0.256 0.511-0.383 0.767-0.353 0.974 0.027 0.181 0.127 0.344 0.277 0.449 0.172 0.12 0.458 0.12 1.029 0.12h8.274l-4 13.333 16.258-16.86c0.548-0.569 0.823-0.853 0.839-1.097 0.014-0.211-0.073-0.417-0.235-0.553-0.186-0.157-0.581-0.157-1.372-0.157h-9.49l3-8z">
      </path>
    </symbol>
    <symbol id="icon-cube" viewBox="0 0 32 32">
      <path fill="none" stroke="currentColor" stroke-linejoin="round" stroke-linecap="round" stroke-miterlimit="4"
        stroke-width="1.5"
        d="M27.333 9.704l-11.333 6.296M16 16l-11.333-6.296M16 16l0 12.667M28 21.411v-10.823c0-0.457 0-0.685-0.067-0.889-0.060-0.18-0.157-0.346-0.285-0.485-0.145-0.158-0.345-0.269-0.744-0.491l-9.867-5.481c-0.378-0.21-0.567-0.315-0.767-0.356-0.177-0.036-0.36-0.036-0.537 0-0.2 0.041-0.389 0.146-0.767 0.356l-9.867 5.481c-0.399 0.222-0.599 0.333-0.744 0.491-0.129 0.14-0.226 0.305-0.286 0.485-0.067 0.204-0.067 0.432-0.067 0.889v10.823c0 0.457 0 0.685 0.067 0.889 0.060 0.18 0.157 0.346 0.286 0.485 0.145 0.158 0.345 0.269 0.744 0.491l9.867 5.481c0.378 0.21 0.567 0.315 0.767 0.356 0.177 0.036 0.36 0.036 0.537 0 0.2-0.041 0.389-0.146 0.767-0.356l9.867-5.481c0.399-0.222 0.599-0.333 0.744-0.491 0.129-0.14 0.226-0.305 0.285-0.485 0.067-0.204 0.067-0.432 0.067-0.889z">
      </path>
    </symbol>
    <symbol id="icon-puzzlePiece" viewBox="0 0 32 32">
      <path fill="none" stroke="currentColor" stroke-linejoin="round" stroke-linecap="round" stroke-miterlimit="4"
        stroke-width="1.5"
        d="M16 2.667l4.8 4.8c3.2-8.4 12.133 0.533 3.733 3.733l4.8 4.8-4.8 4.8c-3.2-8.4-12.133 0.533-3.733 3.733l-4.8 4.8-4.8-4.8c-3.2 8.4-12.133-0.533-3.733-3.733l-4.8-4.8 4.8-4.8c3.2 8.4 12.133-0.533 3.733-3.733l4.8-4.8z">
      </path>
    </symbol>
    <symbol id="icon-loading" viewBox="0 0 32 32">
      <path fill="none" stroke="currentColor" stroke-linejoin="round" stroke-linecap="round" stroke-miterlimit="4"
        stroke-width="1.5"
        d="M4.454 22.666c-1.67-2.893-0.821-6.58 1.944-8.453l0.003-0.003c2.221-1.501 5.143-1.45 7.312 0.126l4.576 3.327c2.167 1.576 5.090 1.627 7.312 0.126l0.003-0.003c2.766-1.872 3.616-5.563 1.943-8.453M22.669 27.546c-2.893 1.669-6.58 0.821-8.453-1.944l-0.003-0.003c-1.501-2.221-1.45-5.143 0.126-7.312l3.327-4.576c1.576-2.167 1.627-5.090 0.126-7.312l-0.006-0.003c-1.872-2.763-5.563-3.615-8.453-1.942M25.427 6.572c5.207 5.207 5.207 13.648 0 18.855s-13.648 5.207-18.855 0c-5.207-5.207-5.207-13.648 0-18.855s13.648-5.207 18.855 0z">
      </path>
    </symbol>
    <symbol id="icon-star" viewBox="0 0 32 32">
      <path fill="none" stroke="currentColor" stroke-linejoin="round" stroke-linecap="round" stroke-miterlimit="4"
        stroke-width="1.5"
        d="M16 2.667l2.683 6.975c0.376 0.978 0.564 1.466 0.856 1.878 0.259 0.364 0.577 0.683 0.942 0.942 0.411 0.292 0.9 0.48 1.878 0.856l6.975 2.683-6.975 2.683c-0.978 0.376-1.466 0.564-1.878 0.856-0.364 0.259-0.683 0.577-0.942 0.942-0.292 0.411-0.48 0.9-0.856 1.878l-2.683 6.975-2.683-6.975c-0.376-0.978-0.564-1.466-0.856-1.878-0.259-0.364-0.578-0.683-0.942-0.942-0.411-0.292-0.9-0.48-1.878-0.856l-6.975-2.683 6.975-2.683c0.978-0.376 1.466-0.564 1.878-0.856 0.364-0.259 0.683-0.578 0.942-0.942 0.292-0.411 0.48-0.9 0.856-1.878l2.683-6.975z">
      </path>
    </symbol>
    <symbol id="icon-fourCircles" viewBox="0 0 32 32">
      <path fill="none" stroke="currentColor" stroke-linejoin="miter" stroke-linecap="butt" stroke-miterlimit="4"
        stroke-width="1.5"
        d="M4.396 6.978c0.301-1.281 1.301-2.282 2.582-2.582v0c1.11-0.26 2.266-0.26 3.377 0v0c1.281 0.301 2.282 1.301 2.582 2.582v0c0.26 1.11 0.26 2.266 0 3.377v0c-0.301 1.281-1.301 2.282-2.582 2.582v0c-1.11 0.26-2.266 0.26-3.377 0v0c-1.281-0.301-2.282-1.301-2.582-2.582v0c-0.26-1.11-0.26-2.266 0-3.377v0z">
      </path>
      <path fill="none" stroke="currentColor" stroke-linejoin="miter" stroke-linecap="butt" stroke-miterlimit="4"
        stroke-width="1.5"
        d="M4.396 21.645c0.301-1.281 1.301-2.282 2.582-2.582v0c1.11-0.261 2.266-0.261 3.377 0v0c1.281 0.3 2.282 1.301 2.582 2.582v0c0.26 1.111 0.26 2.266 0 3.377v0c-0.301 1.281-1.301 2.282-2.582 2.582v0c-1.11 0.261-2.266 0.261-3.377 0v0c-1.281-0.3-2.282-1.301-2.582-2.582v0c-0.26-1.111-0.26-2.266 0-3.377v0z">
      </path>
      <path fill="none" stroke="currentColor" stroke-linejoin="miter" stroke-linecap="butt" stroke-miterlimit="4"
        stroke-width="1.5"
        d="M19.063 6.978c0.3-1.281 1.301-2.282 2.582-2.582v0c1.111-0.26 2.266-0.26 3.377 0v0c1.281 0.301 2.282 1.301 2.582 2.582v0c0.261 1.11 0.261 2.266 0 3.377v0c-0.3 1.281-1.301 2.282-2.582 2.582v0c-1.111 0.26-2.266 0.26-3.377 0v0c-1.281-0.301-2.282-1.301-2.582-2.582v0c-0.261-1.11-0.261-2.266 0-3.377v0z">
      </path>
      <path fill="none" stroke="currentColor" stroke-linejoin="miter" stroke-linecap="butt" stroke-miterlimit="4"
        stroke-width="1.5"
        d="M19.063 21.645c0.3-1.281 1.301-2.282 2.582-2.582v0c1.111-0.261 2.266-0.261 3.377 0v0c1.281 0.3 2.282 1.301 2.582 2.582v0c0.261 1.111 0.261 2.266 0 3.377v0c-0.3 1.281-1.301 2.282-2.582 2.582v0c-1.111 0.261-2.266 0.261-3.377 0v0c-1.281-0.3-2.282-1.301-2.582-2.582v0c-0.261-1.111-0.261-2.266 0-3.377v0z">
      </path>
    </symbol>
    <symbol id="icon-trash" viewBox="0 0 32 32">
      <path fill="none" stroke="currentColor" stroke-linejoin="round" stroke-linecap="round" stroke-miterlimit="4"
        stroke-width="2.6" d="M12 4h8"></path>
      <path fill="none" stroke="currentColor" stroke-linejoin="round" stroke-linecap="round" stroke-miterlimit="4"
        stroke-width="2.6" d="M4 8h24"></path>
      <path fill="none" stroke="currentColor" stroke-linejoin="round" stroke-linecap="round" stroke-miterlimit="4"
        stroke-width="2.6"
        d="M6.667 8l0.801 12.018c0.149 2.231 0.223 3.347 0.588 4.243 0.662 1.627 2.004 2.883 3.672 3.435 0.919 0.304 2.037 0.304 4.273 0.304v0c2.236 0 3.354 0 4.273-0.304 1.668-0.552 3.010-1.808 3.672-3.435 0.365-0.896 0.439-2.012 0.588-4.243l0.801-12.018">
      </path>
    </symbol>
    <symbol id="icon-pencil" viewBox="0 0 32 32">
      <path fill="none" stroke="currentColor" stroke-linejoin="round" stroke-linecap="round" stroke-miterlimit="4"
        stroke-width="2.7733"
        d="M1.422 30.578l7.892-3.036c0.505-0.194 0.757-0.291 0.993-0.418 0.21-0.113 0.41-0.243 0.598-0.388 0.212-0.164 0.403-0.356 0.785-0.738l16.042-16.042c1.571-1.571 1.571-4.118 0-5.689s-4.118-1.571-5.689 0l-16.042 16.042c-0.382 0.382-0.574 0.574-0.738 0.785-0.146 0.188-0.276 0.388-0.388 0.598-0.127 0.236-0.224 0.489-0.418 0.993l-3.035 7.892zM1.422 30.578l2.927-7.61c0.209-0.545 0.314-0.817 0.494-0.942 0.157-0.109 0.351-0.15 0.539-0.114 0.215 0.041 0.421 0.247 0.834 0.66l3.213 3.213c0.413 0.413 0.619 0.619 0.66 0.834 0.036 0.188-0.005 0.382-0.114 0.539-0.125 0.18-0.397 0.284-0.942 0.494l-7.61 2.927z">
      </path>
    </symbol>
    <symbol id="icon-entry" viewBox="0 0 32 32">
      <path fill="none" stroke="currentColor" stroke-linejoin="round" stroke-linecap="round" stroke-miterlimit="4"
        stroke-width="2.6"
        d="M4.45 9.333c2.305-3.985 6.614-6.667 11.55-6.667 7.364 0 13.333 5.97 13.333 13.333s-5.97 13.333-13.333 13.333c-4.935 0-9.244-2.681-11.55-6.667">
      </path>
      <path fill="none" stroke="currentColor" stroke-linejoin="round" stroke-linecap="round" stroke-miterlimit="4"
        stroke-width="2.6" d="M16 21.333l5.333-5.333-5.333-5.333"></path>
      <path fill="none" stroke="currentColor" stroke-linejoin="round" stroke-linecap="round" stroke-miterlimit="4"
        stroke-width="2.6" d="M2.667 16h18.667"></path>
    </symbol>
    <symbol id="icon-ringbell" viewBox="0 0 37 32">
      <path stroke-linejoin="round" stroke-linecap="round" stroke-miterlimit="4" stroke-width="3.4286"
        d="M33.524 2.286h-30.476l12.19 14.415v9.966l6.095 3.048v-13.013l12.19-14.415z"></path>
    </symbol>
    <symbol id="icon-userBlack" viewBox="0 0 28 32">
      <path fill="#1f1f1f" style="fill: var(--color1, #1f1f1f)"
        d="M3.282 0h21.333c1.813 0 3.282 1.469 3.282 3.282v21.333c0 1.813-1.469 3.282-3.282 3.282h-21.333c-1.813 0-3.282-1.469-3.282-3.282v-21.333c0-1.813 1.469-3.282 3.282-3.282z">
      </path>
      <path fill="#151515" style="fill: var(--color2, #151515)"
        d="M18.735 12.855c0 2.568-2.082 4.65-4.65 4.65s-4.65-2.082-4.65-4.65c0-2.568 2.082-4.65 4.65-4.65s4.65 2.082 4.65 4.65z">
      </path>
      <path fill="#151515" style="fill: var(--color2, #151515)"
        d="M25.335 28.641c0-1.502-0.296-2.989-0.871-4.377s-1.417-2.648-2.479-3.71c-1.062-1.062-2.323-1.904-3.71-2.479s-2.875-0.871-4.377-0.871c-1.502 0-2.989 0.296-4.377 0.871s-2.648 1.417-3.71 2.479c-1.062 1.062-1.904 2.323-2.479 3.71s-0.871 2.875-0.871 4.377h22.873z">
      </path>
      <path fill="#bedbb0" style="fill: var(--color3, #bedbb0)"
        d="M16.41 22.154h-4.923c-1.359 0-2.462 1.102-2.462 2.462v4.923c0 1.359 1.102 2.462 2.462 2.462h4.923c1.359 0 2.462-1.102 2.462-2.462v-4.923c0-1.359-1.102-2.462-2.462-2.462z">
      </path>
      <path fill="none" stroke="#161616" style="stroke: var(--color4, #161616)" stroke-linejoin="round"
        stroke-linecap="round" stroke-miterlimit="4" stroke-width="0.4103" d="M13.949 25.88v2.393"></path>
      <path fill="none" stroke="#161616" style="stroke: var(--color4, #161616)" stroke-linejoin="round"
        stroke-linecap="round" stroke-miterlimit="4" stroke-width="0.4103" d="M12.752 27.077h2.393"></path>
    </symbol>
    <symbol id="icon-userBlue" viewBox="0 0 28 32">
      <path fill="#ecedfd" style="fill: var(--color5, #ecedfd)"
        d="M3.282 0h21.333c1.813 0 3.282 1.469 3.282 3.282v21.333c0 1.813-1.469 3.282-3.282 3.282h-21.333c-1.813 0-3.282-1.469-3.282-3.282v-21.333c0-1.813 1.469-3.282 3.282-3.282z">
      </path>
      <path fill="#fff" style="fill: var(--color6, #fff)"
        d="M18.735 12.855c0 2.568-2.082 4.65-4.65 4.65s-4.65-2.082-4.65-4.65c0-2.568 2.082-4.65 4.65-4.65s4.65 2.082 4.65 4.65z">
      </path>
      <path fill="#fff" style="fill: var(--color6, #fff)"
        d="M25.335 28.641c0-1.502-0.296-2.989-0.871-4.377s-1.417-2.648-2.479-3.71c-1.062-1.062-2.323-1.904-3.71-2.479s-2.875-0.871-4.377-0.871c-1.502 0-2.989 0.296-4.377 0.871s-2.648 1.417-3.71 2.479c-1.062 1.062-1.904 2.323-2.479 3.71s-0.871 2.875-0.871 4.377h22.873z">
      </path>
      <path fill="#ecedfd" style="fill: var(--color5, #ecedfd)"
        d="M16.41 22.154h-4.923c-1.359 0-2.462 1.102-2.462 2.462v4.923c0 1.359 1.102 2.462 2.462 2.462h4.923c1.359 0 2.462-1.102 2.462-2.462v-4.923c0-1.359-1.102-2.462-2.462-2.462z">
      </path>
      <path fill="none" stroke="#161616" style="stroke: var(--color4, #161616)" stroke-linejoin="round"
        stroke-linecap="round" stroke-miterlimit="4" stroke-width="0.4103" d="M13.949 25.88v2.393"></path>
      <path fill="none" stroke="#161616" style="stroke: var(--color4, #161616)" stroke-linejoin="round"
        stroke-linecap="round" stroke-miterlimit="4" stroke-width="0.4103" d="M12.752 27.077h2.393"></path>
    </symbol>
    <symbol id="icon-userGreen" viewBox="0 0 28 32">
      <path fill="#ffffff" style="fill: var(--color1, #ffffff)"
        d="M3.282 0h21.333c1.813 0 3.282 1.469 3.282 3.282v21.333c0 1.813-1.469 3.282-3.282 3.282h-21.333c-1.813 0-3.282-1.469-3.282-3.282v-21.333c0-1.813 1.469-3.282 3.282-3.282z">
      </path>
      <path fill="#000000" style="fill: var(--color2, #000000)"
        d="M18.735 12.855c0 2.568-2.082 4.65-4.65 4.65s-4.65-2.082-4.65-4.65c0-2.568 2.082-4.65 4.65-4.65s4.65 2.082 4.65 4.65z">
      </path>
      <path fill="#000000" style="fill: var(--color2, #000000)"
        d="M25.335 28.641c0-1.502-0.296-2.989-0.871-4.377s-1.417-2.648-2.479-3.71c-1.062-1.062-2.323-1.904-3.71-2.479s-2.875-0.871-4.377-0.871c-1.502 0-2.989 0.296-4.377 0.871s-2.648 1.417-3.71 2.479c-1.062 1.062-1.904 2.323-2.479 3.71s-0.871 2.875-0.871 4.377h22.873z">
      </path>
      <path fill="rgba(190, 219, 176, 1)" style="fill: var(--color3, rgba(190, 219, 176, 1))"
        d="M16.41 22.154h-4.923c-1.359 0-2.462 1.102-2.462 2.462v4.923c0 1.359 1.102 2.462 2.462 2.462h4.923c1.359 0 2.462-1.102 2.462-2.462v-4.923c0-1.359-1.102-2.462-2.462-2.462z">
      </path>
      <path fill="none" stroke="#000000" style="stroke: var(--color2, #000000)" stroke-linejoin="round"
        stroke-linecap="round" stroke-miterlimit="4" stroke-width="0.4103" d="M13.949 25.88v2.393"></path>
      <path fill="none" stroke="#000000" style="stroke: var(--color2, #000000)" stroke-linejoin="round"
        stroke-linecap="round" stroke-miterlimit="4" stroke-width="0.4103" d="M12.752 27.077h2.393"></path>
    </symbol>
    <symbol id="icon-logoBlue" viewBox="0 0 32 32">
      <path fill="#ecedfd" style="fill: var(--color5, #ecedfd)"
        d="M24 0h-16c-4.418 0-8 3.582-8 8v16c0 4.418 3.582 8 8 8h16c4.418 0 8-3.582 8-8v-16c0-4.418-3.582-8-8-8z">
      </path>
      <path fill="#5255bc" style="fill: var(--color7, #5255bc)"
        d="M13.331 23.027c0.245-1.272 0.453-2.61 0.747-3.949 0.145-0.701-0.032-0.999-0.815-0.946s-1.657 0.027-2.49 0c-0.833-0.027-0.982-0.446-0.502-1.044 2.363-2.918 4.753-5.8 7.134-8.674 0.267-0.326 0.575-0.558 1.014-0.312s0.349 0.549 0.276 0.915c-0.263 1.339-0.48 2.677-0.77 3.989-0.149 0.678 0.045 0.919 0.751 0.892 0.709-0.036 1.419-0.036 2.127 0 0.403 0 0.933-0.21 1.141 0.339s-0.231 0.781-0.453 1.107c-0.905 1.115-1.823 2.229-2.752 3.342-1.361 1.624-2.711 3.242-4.051 4.854-0.263 0.317-0.557 0.571-1.005 0.41s-0.353-0.54-0.353-0.924z">
      </path>
    </symbol>
    <symbol id="icon-logoBlackWhite" viewBox="0 0 32 32">
      <path fill="#1f1f1f" style="fill: var(--color1, #1f1f1f)"
        d="M24 0h-16c-4.418 0-8 3.582-8 8v16c0 4.418 3.582 8 8 8h16c4.418 0 8-3.582 8-8v-16c0-4.418-3.582-8-8-8z">
      </path>
      <path fill="#fff" style="fill: var(--color6, #fff)"
        d="M13.331 23.027c0.245-1.272 0.453-2.61 0.747-3.949 0.145-0.701-0.032-0.999-0.815-0.946s-1.657 0.027-2.49 0c-0.833-0.027-0.982-0.446-0.502-1.044 2.363-2.918 4.753-5.8 7.134-8.674 0.267-0.326 0.575-0.558 1.014-0.312s0.349 0.549 0.276 0.915c-0.263 1.339-0.48 2.677-0.77 3.989-0.149 0.678 0.045 0.919 0.751 0.892 0.709-0.036 1.419-0.036 2.127 0 0.403 0 0.933-0.21 1.141 0.339s-0.231 0.781-0.453 1.107c-0.905 1.115-1.823 2.229-2.752 3.342-1.361 1.624-2.711 3.242-4.051 4.854-0.263 0.317-0.557 0.571-1.005 0.41s-0.353-0.54-0.353-0.924z">
      </path>
    </symbol>
    <symbol id="icon-logout" viewBox="0 0 32 32">
      <path stroke-linejoin="round" stroke-linecap="round" stroke-miterlimit="4" stroke-width="1.5"
        d="M11.867 10.080c0.413-4.8 2.88-6.76 8.28-6.76h0.173c5.96 0 8.347 2.387 8.347 8.347v8.693c0 5.96-2.387 8.347-8.347 8.347h-0.173c-5.36 0-7.827-1.933-8.267-6.653">
      </path>
      <path stroke-linejoin="round" stroke-linecap="round" stroke-miterlimit="4" stroke-width="1.5"
        d="M2.667 16h17.173"></path>
      <path stroke-linejoin="round" stroke-linecap="round" stroke-miterlimit="4" stroke-width="1.5"
        d="M16.867 11.533l4.467 4.467-4.467 4.467"></path>
    </symbol>
    <symbol id="icon-eyePasswordWhite" viewBox="0 0 32 32">
      <path fill="none" stroke="#fff" style="stroke: var(--color1, #fff)" stroke-linejoin="round" stroke-linecap="round"
        stroke-miterlimit="4" stroke-width="2.3111"
        d="M1.333 16c0 0 5.333-10.667 14.667-10.667s14.667 10.667 14.667 10.667c0 0-5.333 10.667-14.667 10.667s-14.667-10.667-14.667-10.667z">
      </path>
      <path fill="none" stroke="#fff" style="stroke: var(--color1, #fff)" stroke-linejoin="round" stroke-linecap="round"
        stroke-miterlimit="4" stroke-width="2.3111"
        d="M16 20c2.209 0 4-1.791 4-4s-1.791-4-4-4c-2.209 0-4 1.791-4 4s1.791 4 4 4z"></path>
    </symbol>
    <symbol id="icon-eyePasswordGrey" viewBox="0 0 32 32">
      <path stroke-linejoin="round" stroke-linecap="round" stroke-miterlimit="4" stroke-width="2.3111"
        d="M1.333 16c0 0 5.333-10.667 14.667-10.667s14.667 10.667 14.667 10.667c0 0-5.333 10.667-14.667 10.667s-14.667-10.667-14.667-10.667z">
      </path>
      <path stroke-linejoin="round" stroke-linecap="round" stroke-miterlimit="4" stroke-width="2.3111"
        d="M16 20c2.209 0 4-1.791 4-4s-1.791-4-4-4c-2.209 0-4 1.791-4 4s1.791 4 4 4z"></path>
    </symbol>
    <symbol id="icon-closeBtn" viewBox="0 0 32 32">
      <path fill="none" stroke="currentColor" stroke-linejoin="round" stroke-linecap="round" stroke-miterlimit="4"
        stroke-width="2.6667" d="M24 8l-16 16"></path>
      <path fill="none" stroke="currentColor" stroke-linejoin="round" stroke-linecap="round" stroke-miterlimit="4"
        stroke-width="2.6667" d="M8 8l16 16"></path>
    </symbol>
    <symbol id="icon-plus" viewBox="0 0 32 32">
      <path
        d="M25.143 0h-18.286c-3.787 0-6.857 3.070-6.857 6.857v18.286c0 3.787 3.070 6.857 6.857 6.857h18.286c3.787 0 6.857-3.070 6.857-6.857v-18.286c0-3.787-3.070-6.857-6.857-6.857z">
      </path>
      <path fill="none" stroke="#fff" style="stroke: var(--color1, #fff)" stroke-linejoin="round" stroke-linecap="round"
        stroke-miterlimit="4" stroke-width="1.1429" d="M16 11.333v9.333"></path>
      <path fill="none" stroke="#fff" style="stroke: var(--color1, #fff)" stroke-linejoin="round" stroke-linecap="round"
        stroke-miterlimit="4" stroke-width="1.1429" d="M11.333 16h9.333"></path>
    </symbol>
    <symbol id="icon-dropDown" viewBox="0 0 30 32">
      <path fill="none" stroke="currentColor" stroke-linejoin="round" stroke-linecap="round" stroke-miterlimit="4"
        stroke-width="2.8235" d="M7.529 12.235l7.529 7.529 7.529-7.529"></path>
    </symbol>
    <symbol id="icon-burger-menu" viewBox="0 0 24 24">
      <path d="M3 12H21" stroke="#161616" stroke-width="2" stroke-linecap="round" stroke-linejoin="round" />
      <path d="M3 6H21" stroke="#161616" stroke-width="2" stroke-linecap="round" stroke-linejoin="round" />
      <path d="M3 18H21" stroke="#161616" stroke-width="2" stroke-linecap="round" stroke-linejoin="round" />
    </symbol>
    <symbol id="icon-plusWhite" viewBox="0 0 32 32">
      <path fill="#fff" style="fill: var(--color1, #fff)"
        d="M25.143 0h-18.286c-3.787 0-6.857 3.070-6.857 6.857v18.286c0 3.787 3.070 6.857 6.857 6.857h18.286c3.787 0 6.857-3.070 6.857-6.857v-18.286c0-3.787-3.070-6.857-6.857-6.857z">
      </path>
      <path fill="none" stroke="#161616" style="stroke: var(--color2, #161616)" stroke-linejoin="round"
        stroke-linecap="round" stroke-miterlimit="4" stroke-width="1.1429" d="M16 11.333v9.333"></path>
      <path fill="none" stroke="#161616" style="stroke: var(--color2, #161616)" stroke-linejoin="round"
        stroke-linecap="round" stroke-miterlimit="4" stroke-width="1.1429" d="M11.334 16h9.333"></path>
    </symbol>

    <symbol id="icon-filter" viewBox="0 0 32 32">
      <path fill="none" stroke="currentColor" stroke-linejoin="round" stroke-linecap="round" stroke-miterlimit="4"
        stroke-width="3" d="M29.333 4h-26.667l10.667 12.613v8.72l5.333 2.667v-11.387l10.667-12.613z"></path>
    </symbol>

    <symbol id="icon-helpCircle" viewBox="0 0 32 32">
  <path fill="none" stroke="currentColor" style="stroke: var(--color1, currentColor)" stroke-linejoin="round" stroke-linecap="round" stroke-miterlimit="4" stroke-width="2.88" d="M16 29.333c7.364 0 13.333-5.97 13.333-13.333s-5.97-13.333-13.333-13.333c-7.364 0-13.333 5.97-13.333 13.333s5.97 13.333 13.333 13.333z"></path>
  <path fill="none" stroke="currentColor" style="stroke: var(--color1, currentColor)" stroke-linejoin="round" stroke-linecap="round" stroke-miterlimit="4" stroke-width="2.88" d="M12.12 12c0.313-0.891 0.932-1.643 1.747-2.121s1.772-0.654 2.703-0.494c0.931 0.16 1.776 0.644 2.384 1.366s0.941 1.637 0.94 2.582c0 2.667-4 4-4 4"></path>
  <path fill="none" stroke="currentColor" style="stroke: var(--color1, currentColor)" stroke-linejoin="round" stroke-linecap="round" stroke-miterlimit="4" stroke-width="2.88" d="M16 22.666h0.020"></path>
</symbol>

  </defs>
</svg>